name C:\Users\u0101727\Documents\MyRepositories\predictivesimulations\OpenSimModel\subject1\EMG\EMG_gait_25.mot
datacolumns 25
datarows 9
range 1.05300000 1.06100000
endheader
time	HamL_r	TA_r	PerL_r	GL_r	HamM_r	Sol_r	VL_r	VM_r	PerB_l	TA_l	PerL_l	GL_l	GM_l	Sol_l	VL_l	VM_l	AddL_l	RF_l	TFL_l	GluMed_l	HamL_l	HamM_l	GluMed_r	RF_r	
          1.05300000	          0.00487360	          0.00452784	          0.06578657	          0.00388121	          0.00530208	          0.08014693	          0.00434287	          0.00462891	          0.01007140	          0.05963699	          0.01861692	          0.00900938	          0.02016005	          0.00998268	          0.02358144	          0.02850319	          0.01165883	          0.01285272	          0.00727920	          0.01141602	          0.02353260	          0.11520111	          0.00899265	          0.00657405	
          1.05400000	          0.00487107	          0.00451472	          0.06485854	          0.00391380	          0.00529887	          0.08018355	          0.00434612	          0.00461319	          0.01012453	          0.05963665	          0.01843768	          0.00898127	          0.01992982	          0.01000678	          0.02368524	          0.02854960	          0.01175469	          0.01274077	          0.00722278	          0.01126165	          0.02387328	          0.11399930	          0.00868896	          0.00648501	
          1.05500000	          0.00486850	          0.00449996	          0.06391431	          0.00394755	          0.00529593	          0.08021598	          0.00435006	          0.00459634	          0.01017125	          0.05956431	          0.01824428	          0.00894638	          0.01968195	          0.01002514	          0.02376975	          0.02857991	          0.01184675	          0.01262661	          0.00716845	          0.01110859	          0.02421435	          0.11272495	          0.00839233	          0.00639796	
          1.05600000	          0.00486600	          0.00448348	          0.06295746	          0.00398234	          0.00529315	          0.08024242	          0.00435461	          0.00457848	          0.01021181	          0.05942267	          0.01803838	          0.00890518	          0.01941828	          0.01003779	          0.02383638	          0.02859605	          0.01193438	          0.01251099	          0.00711627	          0.01095777	          0.02455662	          0.11139346	          0.00810321	          0.00631314	
          1.05700000	          0.00486370	          0.00446518	          0.06199117	          0.00401804	          0.00529040	          0.08026162	          0.00435964	          0.00455971	          0.01024647	          0.05921474	          0.01782162	          0.00885831	          0.01914054	          0.01004469	          0.02388663	          0.02859957	          0.01201709	          0.01239469	          0.00706634	          0.01081008	          0.02490145	          0.11001904	          0.00782200	          0.00623073	
          1.05800000	          0.00486176	          0.00444491	          0.06101858	          0.00405447	          0.00528756	          0.08027340	          0.00436502	          0.00454012	          0.01027554	          0.05894361	          0.01759552	          0.00880653	          0.01885023	          0.01004582	          0.02392201	          0.02859171	          0.01209452	          0.01227847	          0.00701874	          0.01066633	          0.02525040	          0.10861457	          0.00754906	          0.00615088	
          1.05900000	          0.00486033	          0.00442253	          0.06004341	          0.00409140	          0.00528459	          0.08027844	          0.00437063	          0.00451975	          0.01029924	          0.05861236	          0.01736144	          0.00875056	          0.01854866	          0.01004125	          0.02394402	          0.02857342	          0.01216637	          0.01216297	          0.00697355	          0.01052724	          0.02560491	          0.10719161	          0.00728472	          0.00607370	
          1.06000000	          0.00485956	          0.00439792	          0.05906994	          0.00412863	          0.00528150	          0.08027750	          0.00437631	          0.00449862	          0.01031773	          0.05822407	          0.01712053	          0.00869110	          0.01823684	          0.01003114	          0.02395404	          0.02854555	          0.01223235	          0.01204869	          0.00693090	          0.01039342	          0.02596618	          0.10576039	          0.00702922	          0.00599927	
          1.06100000	          0.00485962	          0.00437103	          0.05810267	          0.00416597	          0.00527830	          0.08027092	          0.00438190	          0.00447676	          0.01033105	          0.05778175	          0.01687375	          0.00862876	          0.01791560	          0.01001562	          0.02395330	          0.02850893	          0.01229221	          0.01193604	          0.00689086	          0.01026534	          0.02633528	          0.10432985	          0.00678272	          0.00592762	
